<svg xmlns="http://www.w3.org/2000/svg" viewBox="0 0 100 100">
  <!-- Body -->
  <ellipse cx="50" cy="72" rx="18" ry="22" fill="#2ecc71"/>
  <!-- Head -->
  <ellipse cx="50" cy="35" rx="28" ry="25" fill="#2ecc71"/>
  <!-- Eyes -->
  <ellipse cx="38" cy="35" rx="10" ry="12" fill="white"/>
  <ellipse cx="62" cy="35" rx="10" ry="12" fill="white"/>
  <ellipse cx="38" cy="37" rx="5" ry="7" fill="#1a1a1a"/>
  <ellipse cx="62" cy="37" rx="5" ry="7" fill="#1a1a1a"/>
  <circle cx="36" cy="35" r="2" fill="white"/>
  <circle cx="60" cy="35" r="2" fill="white"/>
  <!-- Mouth -->
  <ellipse cx="50" cy="52" rx="6" ry="3" fill="#27ae60"/>
  <path d="M 46 52 Q 50 55 54 52" stroke="#1a5a1a" stroke-width="1" fill="none"/>
  <!-- Antennae -->
  <path d="M 35 15 Q 30 5 25 8" stroke="#2ecc71" stroke-width="3" fill="none"/>
  <circle cx="25" cy="8" r="4" fill="#f1c40f"/>
  <path d="M 65 15 Q 70 5 75 8" stroke="#2ecc71" stroke-width="3" fill="none"/>
  <circle cx="75" cy="8" r="4" fill="#f1c40f"/>
  <!-- Arms -->
  <ellipse cx="25" cy="65" rx="6" ry="10" fill="#2ecc71"/>
  <ellipse cx="75" cy="65" rx="6" ry="10" fill="#2ecc71"/>
  <!-- Spots -->
  <circle cx="40" cy="70" r="3" fill="#27ae60"/>
  <circle cx="55" cy="75" r="2" fill="#27ae60"/>
  <circle cx="60" cy="68" r="2.5" fill="#27ae60"/>
</svg>
