<svg xmlns="http://www.w3.org/2000/svg" viewBox="0 0 100 100">
  <!-- Body -->
  <rect x="30" y="50" width="40" height="35" rx="5" fill="#95a5a6"/>
  <!-- Head -->
  <rect x="28" y="20" width="44" height="32" rx="8" fill="#7f8c8d"/>
  <!-- Antenna -->
  <rect x="48" y="8" width="4" height="14" fill="#666"/>
  <circle cx="50" cy="6" r="5" fill="#e74c3c"/>
  <!-- Eyes -->
  <circle cx="40" cy="35" r="7" fill="#2c3e50"/>
  <circle cx="60" cy="35" r="7" fill="#2c3e50"/>
  <circle cx="40" cy="35" r="4" fill="#3498db"/>
  <circle cx="60" cy="35" r="4" fill="#3498db"/>
  <circle cx="41" cy="34" r="2" fill="white"/>
  <circle cx="61" cy="34" r="2" fill="white"/>
  <!-- Mouth -->
  <rect x="38" y="44" width="24" height="4" rx="2" fill="#2c3e50"/>
  <rect x="40" y="45" width="4" height="2" fill="#3498db"/>
  <rect x="48" y="45" width="4" height="2" fill="#3498db"/>
  <rect x="56" y="45" width="4" height="2" fill="#3498db"/>
  <!-- Chest Panel -->
  <rect x="38" y="58" width="24" height="15" rx="3" fill="#2c3e50"/>
  <circle cx="45" cy="65" r="3" fill="#2ecc71"/>
  <circle cx="55" cy="65" r="3" fill="#e74c3c"/>
  <!-- Arms -->
  <rect x="18" y="52" width="12" height="6" rx="3" fill="#7f8c8d"/>
  <rect x="70" y="52" width="12" height="6" rx="3" fill="#7f8c8d"/>
  <!-- Legs -->
  <rect x="35" y="85" width="10" height="12" rx="2" fill="#7f8c8d"/>
  <rect x="55" y="85" width="10" height="12" rx="2" fill="#7f8c8d"/>
</svg>
